<svg width="39" height="39" viewBox="0 0 39 39" fill="none" xmlns="http://www.w3.org/2000/svg">
<path d="M35.2625 21.6937L33.6375 23.3187L30.3062 19.9875L31.9312 18.3625C32.0983 18.1987 32.3229 18.107 32.5569 18.107C32.7908 18.107 33.0154 18.1987 33.1825 18.3625L35.2625 20.4425C35.6037 20.7837 35.6037 21.3525 35.2625 21.6937ZM19.5 30.7775L29.3475 20.93L32.6787 24.2612L22.8475 34.125H19.5V30.7775ZM19.5 22.75C12.3175 22.75 6.5 25.6587 6.5 29.25V32.5H16.25V29.4287L22.75 22.9287C21.6775 22.7987 20.5887 22.75 19.5 22.75ZM19.5 6.5C17.7761 6.5 16.1228 7.18482 14.9038 8.40381C13.6848 9.62279 13 11.2761 13 13C13 14.7239 13.6848 16.3772 14.9038 17.5962C16.1228 18.8152 17.7761 19.5 19.5 19.5C21.2239 19.5 22.8772 18.8152 24.0962 17.5962C25.3152 16.3772 26 14.7239 26 13C26 11.2761 25.3152 9.62279 24.0962 8.40381C22.8772 7.18482 21.2239 6.5 19.5 6.5Z" fill="#67B99A"/>
</svg>
