<?xml version="1.0" standalone="no"?>
<!DOCTYPE svg PUBLIC "-//W3C//DTD SVG 20010904//EN"
 "http://www.w3.org/TR/2001/REC-SVG-20010904/DTD/svg10.dtd">
<svg version="1.0" xmlns="http://www.w3.org/2000/svg"
 width="365.000000pt" height="114.000000pt" viewBox="0 0 365.000000 114.000000"
 preserveAspectRatio="xMidYMid meet">

<g transform="translate(0.000000,114.000000) scale(0.100000,-0.100000)"
fill="#000000" stroke="none">
<path d="M3545 969 c-10 -16 4 -382 15 -393 5 -5 15 -6 23 -3 12 4 16 41 22
179 9 214 8 222 -27 226 -14 2 -29 -2 -33 -9z"/>
<path d="M36 954 c-3 -9 -6 -122 -6 -253 0 -171 3 -240 12 -249 16 -16 45 -15
55 1 4 6 10 94 13 195 l5 182 65 -90 c63 -87 88 -109 110 -95 6 4 36 42 66 86
31 43 60 81 65 84 5 4 9 -65 9 -172 0 -98 4 -184 9 -191 4 -8 19 -12 32 -10
l24 3 0 260 0 260 -25 3 c-22 3 -37 -12 -109 -113 -46 -63 -86 -115 -89 -115
-4 1 -47 52 -95 115 -68 88 -94 115 -112 115 -12 0 -26 -7 -29 -16z"/>
<path d="M1591 957 c-8 -11 -11 -82 -9 -257 3 -219 5 -244 21 -254 12 -8 22
-8 35 0 15 10 18 34 22 188 l5 176 125 -185 c111 -167 127 -186 150 -183 l25
3 0 260 0 260 -30 0 -30 0 -5 -185 -5 -185 -125 185 c-126 186 -150 211 -179
177z"/>
<path d="M2282 958 c-9 -9 -12 -80 -12 -260 0 -240 1 -248 21 -258 38 -21 48
2 51 118 l3 107 107 3 107 3 3 -112 c2 -91 6 -114 20 -122 12 -8 21 -7 32 2
14 12 16 47 16 261 0 214 -2 249 -16 261 -11 9 -20 10 -32 2 -14 -8 -18 -30
-20 -117 l-3 -107 -107 3 -107 3 -3 105 c-3 101 -8 119 -37 120 -6 0 -16 -5
-23 -12z"/>
<path d="M2742 958 c-9 -9 -12 -79 -12 -254 0 -207 2 -245 16 -258 12 -13 41
-16 153 -16 146 0 167 6 159 47 -3 16 -17 18 -126 21 l-122 3 0 84 0 84 106 3
c87 2 109 6 117 20 8 12 7 21 -2 32 -11 13 -35 16 -117 16 l-104 0 0 80 0 79
122 3 c109 3 123 5 126 21 8 41 -13 47 -162 47 -97 0 -146 -4 -154 -12z"/>
<path d="M3113 963 c-26 -10 -11 -53 67 -182 l80 -134 0 -97 c0 -108 10 -131
49 -110 19 10 21 20 21 114 l0 103 80 132 c44 72 80 137 80 144 0 7 -5 18 -12
25 -28 28 -48 12 -107 -90 -33 -57 -64 -110 -69 -118 -6 -10 -23 11 -67 85
-81 137 -86 143 -122 128z"/>
<path d="M3555 497 c-10 -8 -16 -23 -13 -38 2 -19 9 -24 33 -24 25 0 31 4 33
27 4 34 -26 54 -53 35z"/>
<path d="M963 205 c0 -44 2 -63 4 -42 4 31 8 37 28 37 20 0 24 -6 28 -37 2
-21 4 -2 4 42 0 44 -2 63 -4 43 -4 -32 -8 -38 -28 -38 -20 0 -24 6 -28 38 -2
20 -4 1 -4 -43z"/>
<path d="M1127 274 c-11 -11 -8 -142 4 -149 5 -4 21 -4 35 -1 24 6 25 9 22 79
-3 69 -4 72 -28 75 -14 2 -29 0 -33 -4z m48 -74 c0 -58 -2 -65 -20 -65 -17 0
-20 8 -23 54 -4 65 2 84 25 79 15 -3 18 -14 18 -68z"/>
<path d="M1273 273 c14 -4 17 -17 19 -76 l2 -72 3 65 c3 46 9 69 20 78 14 10
11 12 -23 11 -21 -1 -31 -3 -21 -6z"/>
<path d="M1400 205 c0 -43 4 -75 10 -75 6 0 10 9 10 19 0 11 6 22 13 24 10 4
10 6 0 6 -9 1 -13 17 -13 47 0 38 3 45 18 42 13 -3 17 -13 17 -46 0 -23 3 -42
8 -42 4 0 7 20 7 44 0 45 -10 56 -51 56 -17 0 -19 -8 -19 -75z"/>
<path d="M1557 274 c-4 -4 -7 -38 -7 -75 0 -71 11 -86 52 -73 17 5 18 14 16
77 -3 69 -4 72 -28 75 -14 2 -29 0 -33 -4z m48 -74 c0 -58 -2 -65 -20 -65 -17
0 -20 8 -23 54 -4 65 2 84 25 79 15 -3 18 -14 18 -68z"/>
<path d="M1703 273 c14 -4 17 -16 17 -74 0 -39 4 -69 10 -69 6 0 10 30 10 69
0 58 3 70 18 74 9 3 -3 5 -28 5 -25 0 -37 -2 -27 -5z"/>
<path d="M1905 270 c-4 -6 -4 -22 -1 -35 3 -13 2 -27 -4 -30 -5 -3 -10 -19
-10 -35 0 -34 30 -56 58 -42 9 5 22 8 27 6 6 -2 10 10 10 26 0 30 -10 40 -17
18 -3 -7 -17 7 -33 30 -20 30 -25 46 -17 54 16 16 34 -1 26 -25 -5 -17 -3 -19
6 -11 6 7 10 20 8 30 -4 21 -42 31 -53 14z m39 -95 c15 -23 15 -26 1 -31 -23
-9 -45 3 -45 24 0 39 21 42 44 7z"/>
<path d="M2117 274 c-4 -4 -7 -38 -7 -76 0 -71 14 -94 44 -69 7 6 16 8 19 4 4
-3 7 10 7 30 0 32 -3 37 -22 36 -17 -1 -19 -2 -5 -6 21 -5 22 -36 2 -53 -24
-20 -35 -1 -35 61 0 46 4 61 16 66 11 4 22 -1 31 -13 14 -19 15 -19 11 1 -3
20 -46 33 -61 19z"/>
<path d="M2271 203 c1 -43 4 -66 6 -50 5 34 20 35 35 2 6 -14 15 -25 20 -25 5
0 6 6 1 13 -4 6 -8 39 -8 72 0 58 -1 60 -27 63 l-28 3 1 -78z m44 27 c0 -25
-5 -36 -17 -38 -15 -3 -18 4 -18 38 0 34 3 41 18 38 12 -2 17 -13 17 -38z"/>
<path d="M2415 205 c0 -43 4 -75 10 -75 6 0 9 24 7 60 -3 38 1 66 8 75 10 12
9 15 -6 15 -17 0 -19 -8 -19 -75z"/>
<path d="M2532 208 l-2 -78 28 1 c22 1 23 2 5 6 -20 4 -22 11 -26 76 l-3 72
-2 -77z"/>
<path d="M2652 208 l-2 -78 28 1 c22 1 23 2 5 6 -20 4 -22 11 -26 76 l-3 72
-2 -77z"/>
</g>
</svg>
